<?xml version="1.0" encoding="utf-8"?>
<!-- Generator: Adobe Illustrator 18.0.0, SVG Export Plug-In . SVG Version: 6.00 Build 0)  -->
<!DOCTYPE svg PUBLIC "-//W3C//DTD SVG 1.1//EN" "http://www.w3.org/Graphics/SVG/1.1/DTD/svg11.dtd">
<svg version="1.1" id="Calque_1" xmlns="http://www.w3.org/2000/svg" xmlns:xlink="http://www.w3.org/1999/xlink" x="0px" y="0px"
	 viewBox="0 0 1117 1116" enable-background="new 0 0 1117 1116" xml:space="preserve">
<g>
	<path fill="#FFFFFF" d="M-991,232c0,168.3,0,336.7,0,505c-372.3,0-744.7,0-1117,0c0-185.7,0-371.3,0-557c0.7-0.1,1.3-0.2,2-0.2
		c36.5,0,73-0.1,109.5,0c14.3,0,25.7,5.8,33,18c5.4,9.1,10.4,18.6,14.2,28.5c7.9,20.7,14.5,41.8,22.2,62.6
		c6.2,16.6,14.4,32.2,27.3,44.9c22.1,21.9,62.8,23.6,84.9-5.8c14.1-18.8,21.9-40.5,27-62.9c7.5-32.9,13.3-66.2,19.8-99.4
		c4.5-22.9,9-45.8,17.4-67.7c1.5-3.8,2.6-8.7,7.7-8.7c5.5,0,6.7,5.2,7.7,9.2c6.4,23.9,13.5,47.8,18.6,72
		c8.2,38.8,14.7,77.9,22.5,116.7c5.6,28.3,13.1,56.1,25.2,82.4c7.7,16.7,17.1,32.2,33,42.4c14.2,9,29.3,12.2,45.5,4.8
		c11.5-5.2,19.2-14.2,25.4-24.7c13.1-22.3,19.8-47,24.1-72.1c5.5-32.6,10.1-65.5,13.5-98.4c4.6-44.2,7.2-88.6,11.4-132.8
		c2.8-30,6.3-59.9,10.4-89.8c3.3-24.6,8.7-48.8,17.5-72.2c1.3-3.5,3.2-6.5,7.2-6.8c3.9-0.2,5.7,2.7,7.1,5.9
		c8.8,19.9,14.4,40.9,17.9,62.3c5.4,33.4,9.9,66.9,14,100.4c5.4,44.6,9.4,89.5,19.7,133.4c4.2,18.2,9.8,35.9,19.1,52.4
		c16.6,29.5,42.1,36.6,72.6,23.1c15.6-6.9,25.9-19.5,34.2-34c15.8-27.7,22.9-58.4,30.6-88.9c5-19.7,10.5-39.2,15.8-58.8
		c1-3.6,3.1-7.3,6.8-6.7c2.8,0.5,6,3.5,7.4,6.3c5,10,9.3,20.3,13.8,30.5c8,18,16.6,35.6,29.2,51c19,23.3,43,35.9,73.6,35.5
		c40.2-0.4,80.3-0.1,120.5-0.1C-996.3,232.4-993.7,232.1-991,232z"/>
	<path fill="#FFFFFF" d="M-2108,123c0-167.3,0-334.7,0-502c372.3,0,744.7,0,1117,0c0,185,0,370,0,555c-2.3-0.3-4.6-0.9-6.9-0.9
		c-39.8-0.1-79.7-0.2-119.5,0.1c-13.3,0.1-24.2-5-31-15.8c-8.1-12.9-15.2-26.5-21.8-40.3c-8.4-17.8-15.5-36.1-27.2-52.1
		c-24.4-33.2-71.8-34.8-94.3,1.8c-9.8,15.9-16.1,33.2-20.9,51.1c-7.8,29.1-14.8,58.4-22.8,87.5c-2.4,8.7-6.5,17.1-10.5,25.3
		c-1.1,2.2-4.9,4.7-6.9,4.3c-2.6-0.6-5.6-3.5-6.8-6.1c-2.3-5.3-4-11-5-16.7c-4.7-26.5-9.8-53-13.6-79.7
		c-6.9-48.8-12.6-97.8-19.5-146.6c-4-28.4-10.9-56.2-22.2-82.8c-6.9-16.1-15.8-30.8-29.9-41.8c-9.4-7.3-20.7-11.2-31.8-11.7
		c-11.3-0.5-22.4,4-31.7,11.5c-12.8,10.2-20.6,24-27,38.5c-11.1,25.3-17.3,52.2-21.6,79.3c-4.5,28.8-8.1,57.7-11.2,86.7
		c-3.2,29.8-5.4,59.7-8,89.5c-2.5,28.3-4.9,56.7-7.7,85c-3.1,31.2-7.5,62.2-15.2,92.6c-1.1,4.6-1,11-7.6,11.4
		c-6.4,0.4-7.3-5.8-8.5-10.1c-6.5-22.2-13.5-44.3-18.5-66.8c-6.4-28.8-11.3-57.9-16.5-86.9c-5.8-32.3-12.1-64.5-22.6-95.7
		c-5.8-17.1-12.9-33.6-24.7-47.6c-16.7-19.9-41.3-24.1-64-12.4c-17.2,8.9-26.8,24.4-34.6,41.3c-8,17.3-13.4,35.5-17.3,54.1
		c-4.4,21-8.3,42.1-12.7,63.1c-5.6,26.9-11.4,53.7-17.4,80.5c-1.1,4.8-3,9.6-5.4,13.9c-1.2,2.2-4.4,4.6-6.7,4.7
		c-2.3,0.1-4.8-2.5-6.8-4.4c-1.2-1.2-1.7-3.2-2.3-4.9c-5.5-15.4-11-30.7-16.4-46.1c-8-22.8-16.4-45.4-30.4-65.5
		c-16.6-23.8-38.6-39.2-68-39.9C-2025.7,122.1-2066.8,123-2108,123z"/>
	<path d="M-2108,123c41.2,0,82.3-0.9,123.5,0.1c29.4,0.7,51.5,16.2,68,39.9c14,20,22.4,42.6,30.4,65.5c5.4,15.4,10.9,30.8,16.4,46.1
		c0.6,1.7,1.1,3.7,2.3,4.9c2,1.9,4.6,4.5,6.8,4.4c2.3-0.1,5.5-2.4,6.7-4.7c2.4-4.3,4.4-9.1,5.4-13.9c6-26.8,11.8-53.6,17.4-80.5
		c4.4-21,8.3-42.1,12.7-63.1c3.9-18.6,9.3-36.8,17.3-54.1c7.8-16.9,17.4-32.4,34.6-41.3c22.7-11.7,47.3-7.5,64,12.4
		c11.8,14,18.9,30.5,24.7,47.6c10.6,31.2,16.8,63.4,22.6,95.7c5.2,29,10.1,58.1,16.5,86.9c5,22.5,12,44.6,18.5,66.8
		c1.3,4.3,2.1,10.5,8.5,10.1c6.6-0.4,6.5-6.8,7.6-11.4c7.7-30.4,12.1-61.4,15.2-92.6c2.8-28.3,5.1-56.7,7.7-85
		c2.6-29.8,4.8-59.7,8-89.5c3.1-29,6.6-57.9,11.2-86.7c4.3-27.1,10.5-54,21.6-79.3c6.4-14.5,14.1-28.3,27-38.5
		c9.4-7.4,20.5-11.9,31.7-11.5c11.2,0.5,22.4,4.3,31.8,11.7c14.1,11,23,25.7,29.9,41.8c11.3,26.5,18.2,54.3,22.2,82.8
		c6.9,48.8,12.6,97.8,19.5,146.6c3.8,26.7,8.8,53.2,13.6,79.7c1,5.7,2.7,11.4,5,16.7c1.1,2.6,4.1,5.5,6.8,6.1
		c1.9,0.4,5.8-2.1,6.9-4.3c4-8.2,8.1-16.5,10.5-25.3c7.9-29.1,14.9-58.4,22.8-87.5c4.8-17.9,11.1-35.1,20.9-51.1
		c22.5-36.5,70-35,94.3-1.8c11.7,16,18.8,34.4,27.2,52.1c6.5,13.8,13.6,27.4,21.8,40.3c6.9,10.9,17.7,15.9,31,15.8
		c39.8-0.3,79.7-0.1,119.5-0.1c2.3,0,4.6,0.6,6.9,0.9c0,18.7,0,37.3,0,56c-2.7,0.1-5.3,0.4-8,0.4c-40.2,0-80.3-0.3-120.5,0.1
		c-30.7,0.3-54.6-12.2-73.6-35.5c-12.5-15.4-21.2-33-29.2-51c-4.5-10.2-8.8-20.5-13.8-30.5c-1.4-2.7-4.6-5.8-7.4-6.3
		c-3.7-0.6-5.8,3.1-6.8,6.7c-5.3,19.6-10.8,39.1-15.8,58.8c-7.8,30.5-14.8,61.2-30.6,88.9c-8.2,14.4-18.6,27.1-34.2,34
		c-30.6,13.5-56.1,6.4-72.6-23.1c-9.2-16.4-14.8-34.2-19.1-52.4c-10.2-43.9-14.3-88.7-19.7-133.4c-4.1-33.6-8.6-67.1-14-100.4
		c-3.4-21.4-9-42.3-17.9-62.3c-1.4-3.2-3.2-6.2-7.1-5.9c-4,0.2-5.8,3.3-7.2,6.8c-8.8,23.3-14.2,47.6-17.5,72.2
		c-4,29.9-7.5,59.8-10.4,89.8c-4.2,44.2-6.8,88.6-11.4,132.8c-3.4,32.9-8,65.8-13.5,98.4c-4.2,25.1-10.9,49.8-24.1,72.1
		c-6.2,10.5-13.9,19.4-25.4,24.7c-16.2,7.4-31.3,4.2-45.5-4.8c-15.9-10.2-25.4-25.7-33-42.4c-12.1-26.3-19.6-54.2-25.2-82.4
		c-7.7-38.9-14.3-78-22.5-116.7c-5.1-24.2-12.1-48-18.6-72c-1.1-4-2.2-9.2-7.7-9.2c-5.2,0-6.3,4.9-7.7,8.7
		c-8.4,21.9-12.9,44.8-17.4,67.7c-6.5,33.2-12.3,66.5-19.8,99.4c-5.1,22.4-12.9,44-27,62.9c-22.1,29.4-62.8,27.7-84.9,5.8
		c-12.9-12.8-21-28.3-27.3-44.9c-7.8-20.7-14.4-41.9-22.2-62.6c-3.8-9.9-8.8-19.4-14.2-28.5c-7.3-12.3-18.8-18-33-18
		c-36.5,0-73,0-109.5,0c-0.7,0-1.3,0.2-2,0.2C-2108,161-2108,142-2108,123z"/>
</g>
<linearGradient id="SVGID_1_" gradientUnits="userSpaceOnUse" x1="68" y1="-1315.5" x2="1185" y2="-1315.5">
	<stop  offset="0" style="stop-color:#F62459"/>
	<stop  offset="0.2556" style="stop-color:#F62757"/>
	<stop  offset="0.4233" style="stop-color:#F72F52"/>
	<stop  offset="0.5657" style="stop-color:#F83E48"/>
	<stop  offset="0.6941" style="stop-color:#F9543A"/>
	<stop  offset="0.813" style="stop-color:#FB6F28"/>
	<stop  offset="0.9234" style="stop-color:#FD9013"/>
	<stop  offset="1" style="stop-color:#FFAC01"/>
</linearGradient>
<rect x="68" y="-1874" fill="url(#SVGID_1_)" width="1117" height="1117"/>
<g>
	<path fill="#FFFFFF" d="M1185-1263c0,168.3,0,336.7,0,505c-372.3,0-744.7,0-1117,0c0-185.7,0-371.3,0-557c0.7-0.1,1.3-0.2,2-0.2
		c36.5,0,73-0.1,109.5,0c14.3,0,25.7,5.8,33,18c5.4,9.1,10.4,18.6,14.2,28.5c7.9,20.7,14.5,41.8,22.2,62.6
		c6.2,16.6,14.4,32.2,27.3,44.9c22.1,21.9,62.8,23.6,84.9-5.8c14.1-18.8,21.9-40.5,27-62.9c7.5-32.9,13.3-66.2,19.8-99.4
		c4.5-22.9,9-45.8,17.4-67.7c1.5-3.8,2.6-8.7,7.7-8.7c5.5,0,6.7,5.2,7.7,9.2c6.4,23.9,13.5,47.8,18.6,72
		c8.2,38.8,14.7,77.9,22.5,116.7c5.6,28.3,13.1,56.1,25.2,82.4c7.7,16.7,17.1,32.2,33,42.4c14.2,9,29.3,12.2,45.5,4.8
		c11.5-5.2,19.2-14.2,25.4-24.7c13.1-22.3,19.8-47,24.1-72.1c5.5-32.6,10.1-65.5,13.5-98.4c4.6-44.2,7.2-88.6,11.4-132.8
		c2.8-30,6.3-59.9,10.4-89.8c3.3-24.6,8.7-48.8,17.5-72.2c1.3-3.5,3.2-6.5,7.2-6.8c3.9-0.2,5.7,2.7,7.1,5.9
		c8.8,19.9,14.4,40.9,17.9,62.3c5.4,33.4,9.9,66.9,14,100.4c5.4,44.6,9.4,89.5,19.7,133.4c4.2,18.2,9.8,35.9,19.1,52.4
		c16.6,29.5,42.1,36.6,72.6,23.1c15.6-6.9,25.9-19.5,34.2-34c15.8-27.7,22.9-58.4,30.6-88.9c5-19.7,10.5-39.2,15.8-58.8
		c1-3.6,3.1-7.3,6.8-6.7c2.8,0.5,6,3.5,7.4,6.3c5,10,9.3,20.3,13.8,30.5c8,18,16.6,35.6,29.2,51c19,23.3,43,35.9,73.6,35.5
		c40.2-0.4,80.3-0.1,120.5-0.1C1179.7-1262.6,1182.3-1262.9,1185-1263z"/>
	<path fill="#FFFFFF" d="M68-1372c0-167.3,0-334.7,0-502c372.3,0,744.7,0,1117,0c0,185,0,370,0,555c-2.3-0.3-4.6-0.9-6.9-0.9
		c-39.8-0.1-79.7-0.2-119.5,0.1c-13.3,0.1-24.2-5-31-15.8c-8.1-12.9-15.2-26.5-21.8-40.3c-8.4-17.8-15.5-36.1-27.2-52.1
		c-24.4-33.2-71.8-34.8-94.3,1.8c-9.8,15.9-16.1,33.2-20.9,51.1c-7.8,29.1-14.8,58.4-22.8,87.5c-2.4,8.7-6.5,17.1-10.5,25.3
		c-1.1,2.2-4.9,4.7-6.9,4.3c-2.6-0.6-5.6-3.5-6.8-6.1c-2.3-5.3-4-11-5-16.7c-4.7-26.5-9.8-53-13.6-79.7
		c-6.9-48.8-12.6-97.8-19.5-146.6c-4-28.4-10.9-56.2-22.2-82.8c-6.9-16.1-15.8-30.8-29.9-41.8c-9.4-7.3-20.7-11.2-31.8-11.7
		c-11.3-0.5-22.4,4-31.7,11.5c-12.8,10.2-20.6,24-27,38.5c-11.1,25.3-17.3,52.2-21.6,79.3c-4.5,28.8-8.1,57.7-11.2,86.7
		c-3.2,29.8-5.4,59.7-8,89.5c-2.5,28.3-4.9,56.7-7.7,85c-3.1,31.2-7.5,62.2-15.2,92.6c-1.1,4.6-1,11-7.6,11.4
		c-6.4,0.4-7.3-5.8-8.5-10.1c-6.5-22.2-13.5-44.3-18.5-66.8c-6.4-28.8-11.3-57.9-16.5-86.9c-5.8-32.3-12.1-64.5-22.6-95.7
		c-5.8-17.1-12.9-33.6-24.7-47.6c-16.7-19.9-41.3-24.1-64-12.4c-17.2,8.9-26.8,24.4-34.6,41.3c-8,17.3-13.4,35.5-17.3,54.1
		c-4.4,21-8.3,42.1-12.7,63.1c-5.6,26.9-11.4,53.7-17.4,80.5c-1.1,4.8-3,9.6-5.4,13.9c-1.2,2.2-4.4,4.6-6.7,4.7
		c-2.3,0.1-4.8-2.5-6.8-4.4c-1.2-1.2-1.7-3.2-2.3-4.9c-5.5-15.4-11-30.7-16.4-46.1c-8-22.8-16.4-45.4-30.4-65.5
		c-16.6-23.8-38.6-39.2-68-39.9C150.3-1372.9,109.2-1372,68-1372z"/>
</g>
<linearGradient id="SVGID_2_" gradientUnits="userSpaceOnUse" x1="0" y1="558" x2="1117" y2="558">
	<stop  offset="0" style="stop-color:#F62459"/>
	<stop  offset="0.2556" style="stop-color:#F62757"/>
	<stop  offset="0.4233" style="stop-color:#F72F52"/>
	<stop  offset="0.5657" style="stop-color:#F83E48"/>
	<stop  offset="0.6941" style="stop-color:#F9543A"/>
	<stop  offset="0.813" style="stop-color:#FB6F28"/>
	<stop  offset="0.9234" style="stop-color:#FD9013"/>
	<stop  offset="1" style="stop-color:#FFAC01"/>
</linearGradient>
<rect y="-0.5" fill="url(#SVGID_2_)" width="1117" height="1117"/>
<g>
	<path d="M1117,610.5c0,168.3,0,336.7,0,505c-372.3,0-744.7,0-1117,0c0-185.7,0-371.3,0-557c0.7-0.1,1.3-0.2,2-0.2
		c36.5,0,73-0.1,109.5,0c14.3,0,25.7,5.8,33,18c5.4,9.1,10.4,18.6,14.2,28.5c7.9,20.7,14.5,41.8,22.2,62.6
		c6.2,16.6,14.4,32.2,27.3,44.9c22.1,21.9,62.8,23.6,84.9-5.8c14.1-18.8,21.9-40.5,27-62.9c7.5-32.9,13.3-66.2,19.8-99.4
		c4.5-22.9,9-45.8,17.4-67.7c1.5-3.8,2.6-8.7,7.7-8.7c5.5,0,6.7,5.2,7.7,9.2c6.4,23.9,13.5,47.8,18.6,72
		c8.2,38.8,14.7,77.9,22.5,116.7c5.6,28.3,13.1,56.1,25.2,82.4c7.7,16.7,17.1,32.2,33,42.4c14.2,9,29.3,12.2,45.5,4.8
		c11.5-5.2,19.2-14.2,25.4-24.7c13.1-22.3,19.8-47,24.1-72.1c5.5-32.6,10.1-65.5,13.5-98.4c4.6-44.2,7.2-88.6,11.4-132.8
		c2.8-30,6.3-59.9,10.4-89.8c3.3-24.6,8.7-48.8,17.5-72.2c1.3-3.5,3.2-6.5,7.2-6.8c3.9-0.2,5.7,2.7,7.1,5.9
		c8.8,19.9,14.4,40.9,17.9,62.3c5.4,33.4,9.9,66.9,14,100.4c5.4,44.6,9.4,89.5,19.7,133.4c4.2,18.2,9.8,35.9,19.1,52.4
		c16.6,29.5,42.1,36.6,72.6,23.1c15.6-6.9,25.9-19.5,34.2-34c15.8-27.7,22.9-58.4,30.6-88.9c5-19.7,10.5-39.2,15.8-58.8
		c1-3.6,3.1-7.3,6.8-6.7c2.8,0.5,6,3.5,7.4,6.3c5,10,9.3,20.3,13.8,30.5c8,18,16.6,35.6,29.2,51c19,23.3,43,35.9,73.6,35.5
		c40.2-0.4,80.3-0.1,120.5-0.1C1111.7,610.9,1114.3,610.6,1117,610.5z"/>
	<path d="M0,501.5c0-167.3,0-334.7,0-502c372.3,0,744.7,0,1117,0c0,185,0,370,0,555c-2.3-0.3-4.6-0.9-6.9-0.9
		c-39.8-0.1-79.7-0.2-119.5,0.1c-13.3,0.1-24.2-5-31-15.8c-8.1-12.9-15.2-26.5-21.8-40.3c-8.4-17.8-15.5-36.1-27.2-52.1
		c-24.4-33.2-71.8-34.8-94.3,1.8c-9.8,15.9-16.1,33.2-20.9,51.1c-7.8,29.1-14.8,58.4-22.8,87.5c-2.4,8.7-6.5,17.1-10.5,25.3
		c-1.1,2.2-4.9,4.7-6.9,4.3c-2.6-0.6-5.6-3.5-6.8-6.1c-2.3-5.3-4-11-5-16.7c-4.7-26.5-9.8-53-13.6-79.7
		C723,464,717.2,415,710.3,366.2c-4-28.4-10.9-56.2-22.2-82.8c-6.9-16.1-15.8-30.8-29.9-41.8c-9.4-7.3-20.7-11.2-31.8-11.7
		c-11.3-0.5-22.4,4-31.7,11.5c-12.8,10.2-20.6,24-27,38.5c-11.1,25.3-17.3,52.2-21.6,79.3c-4.5,28.8-8.1,57.7-11.2,86.7
		c-3.2,29.8-5.4,59.7-8,89.5c-2.5,28.3-4.9,56.7-7.7,85c-3.1,31.2-7.5,62.2-15.2,92.6c-1.1,4.6-1,11-7.6,11.4
		c-6.4,0.4-7.3-5.8-8.5-10.1c-6.5-22.2-13.5-44.3-18.5-66.8c-6.4-28.8-11.3-57.9-16.5-86.9c-5.8-32.3-12.1-64.5-22.6-95.7
		c-5.8-17.1-12.9-33.6-24.7-47.6c-16.7-19.9-41.3-24.1-64-12.4c-17.2,8.9-26.8,24.4-34.6,41.3c-8,17.3-13.4,35.5-17.3,54.1
		c-4.4,21-8.3,42.1-12.7,63.1c-5.6,26.9-11.4,53.7-17.4,80.5c-1.1,4.8-3,9.6-5.4,13.9c-1.2,2.2-4.4,4.6-6.7,4.7
		c-2.3,0.1-4.8-2.5-6.8-4.4c-1.2-1.2-1.7-3.2-2.3-4.9c-5.5-15.4-11-30.7-16.4-46.1c-8-22.8-16.4-45.4-30.4-65.5
		c-16.6-23.8-38.6-39.2-68-39.9C82.3,500.6,41.2,501.5,0,501.5z"/>
</g>
<g>
	<path d="M-837.8-1388.3c0,168.3,0,336.7,0,505c-372.3,0-744.7,0-1117,0c0-185.7,0-371.3,0-557c0.7-0.1,1.3-0.2,2-0.2
		c36.5,0,73-0.1,109.5,0c14.3,0,25.7,5.8,33,18c5.4,9.1,10.4,18.6,14.2,28.5c7.9,20.7,14.5,41.8,22.2,62.6
		c6.2,16.6,14.4,32.2,27.3,44.9c22.1,21.9,62.8,23.6,84.9-5.8c14.1-18.8,21.9-40.5,27-62.9c7.5-32.9,13.3-66.2,19.8-99.4
		c4.5-22.9,9-45.8,17.4-67.7c1.5-3.8,2.6-8.7,7.7-8.7c5.5,0,6.7,5.2,7.7,9.2c6.4,23.9,13.5,47.8,18.6,72
		c8.2,38.8,14.7,77.9,22.5,116.7c5.6,28.3,13.1,56.1,25.2,82.4c7.7,16.7,17.1,32.2,33,42.4c14.2,9,29.3,12.2,45.5,4.8
		c11.5-5.2,19.2-14.2,25.4-24.7c13.1-22.3,19.8-47,24.1-72.1c5.5-32.6,10.1-65.5,13.5-98.4c4.6-44.2,7.2-88.6,11.4-132.8
		c2.8-30,6.3-59.9,10.4-89.8c3.3-24.6,8.7-48.8,17.5-72.2c1.3-3.5,3.2-6.5,7.2-6.8c3.9-0.2,5.7,2.7,7.1,5.9
		c8.8,19.9,14.4,40.9,17.9,62.3c5.4,33.4,9.9,66.9,14,100.4c5.4,44.6,9.4,89.5,19.7,133.4c4.2,18.2,9.8,35.9,19.1,52.4
		c16.6,29.5,42.1,36.6,72.6,23.1c15.6-6.9,25.9-19.5,34.2-34c15.8-27.7,22.9-58.4,30.6-88.9c5-19.7,10.5-39.2,15.8-58.8
		c1-3.6,3.1-7.3,6.8-6.7c2.8,0.5,6,3.5,7.4,6.3c5,10,9.3,20.3,13.8,30.5c8,18,16.6,35.6,29.2,51c19,23.3,43,35.9,73.6,35.5
		c40.2-0.4,80.3-0.1,120.5-0.1C-843.1-1387.9-840.5-1388.2-837.8-1388.3z"/>
	<path fill="#020202" d="M-1954.8-1497.3c0-167.3,0-334.7,0-502c372.3,0,744.7,0,1117,0c0,185,0,370,0,555c-2.3-0.3-4.6-0.9-6.9-0.9
		c-39.8-0.1-79.7-0.2-119.5,0.1c-13.3,0.1-24.2-5-31-15.8c-8.1-12.9-15.2-26.5-21.8-40.3c-8.4-17.8-15.5-36.1-27.2-52.1
		c-24.4-33.2-71.8-34.8-94.3,1.8c-9.8,15.9-16.1,33.2-20.9,51.1c-7.8,29.1-14.8,58.4-22.8,87.5c-2.4,8.7-6.5,17.1-10.5,25.3
		c-1.1,2.2-4.9,4.7-6.9,4.3c-2.6-0.6-5.6-3.5-6.8-6.1c-2.3-5.3-4-11-5-16.7c-4.7-26.5-9.8-53-13.6-79.7
		c-6.9-48.8-12.6-97.8-19.5-146.6c-4-28.4-10.9-56.2-22.2-82.8c-6.9-16.1-15.8-30.8-29.9-41.8c-9.4-7.3-20.7-11.2-31.8-11.7
		c-11.3-0.5-22.4,4-31.7,11.5c-12.8,10.2-20.6,24-27,38.5c-11.1,25.3-17.3,52.2-21.6,79.3c-4.5,28.8-8.1,57.7-11.2,86.7
		c-3.2,29.8-5.4,59.7-8,89.5c-2.5,28.3-4.9,56.7-7.7,85c-3.1,31.2-7.5,62.2-15.2,92.6c-1.1,4.6-1,11-7.6,11.4
		c-6.4,0.4-7.3-5.8-8.5-10.1c-6.5-22.2-13.5-44.3-18.5-66.8c-6.4-28.8-11.3-57.9-16.5-86.9c-5.8-32.3-12.1-64.5-22.6-95.7
		c-5.8-17.1-12.9-33.6-24.7-47.6c-16.7-19.9-41.3-24.1-64-12.4c-17.2,8.9-26.8,24.4-34.6,41.3c-8,17.3-13.4,35.5-17.3,54.1
		c-4.4,21-8.3,42.1-12.7,63.1c-5.6,26.9-11.4,53.7-17.4,80.5c-1.1,4.8-3,9.6-5.4,13.9c-1.2,2.2-4.4,4.6-6.7,4.7
		c-2.3,0.1-4.8-2.5-6.8-4.4c-1.2-1.2-1.7-3.2-2.3-4.9c-5.5-15.4-11-30.7-16.4-46.1c-8-22.8-16.4-45.4-30.4-65.5
		c-16.6-23.8-38.6-39.2-68-39.9C-1872.5-1498.2-1913.6-1497.4-1954.8-1497.3z"/>
	<path fill="#FFFFFF" d="M-1954.8-1497.3c41.2,0,82.3-0.9,123.5,0.1c29.4,0.7,51.5,16.2,68,39.9c14,20,22.4,42.6,30.4,65.5
		c5.4,15.4,10.9,30.8,16.4,46.1c0.6,1.7,1.1,3.7,2.3,4.9c2,1.9,4.6,4.5,6.8,4.4c2.3-0.1,5.5-2.4,6.7-4.7c2.4-4.3,4.4-9.1,5.4-13.9
		c6-26.8,11.8-53.6,17.4-80.5c4.4-21,8.3-42.1,12.7-63.1c3.9-18.6,9.3-36.8,17.3-54.1c7.8-16.9,17.4-32.4,34.6-41.3
		c22.7-11.7,47.3-7.5,64,12.4c11.8,14,18.9,30.5,24.7,47.6c10.6,31.2,16.8,63.4,22.6,95.7c5.2,29,10.1,58.1,16.5,86.9
		c5,22.5,12,44.6,18.5,66.8c1.3,4.3,2.1,10.5,8.5,10.1c6.6-0.4,6.5-6.8,7.6-11.4c7.7-30.4,12.1-61.4,15.2-92.6
		c2.8-28.3,5.1-56.7,7.7-85c2.6-29.8,4.8-59.7,8-89.5c3.1-29,6.6-57.9,11.2-86.7c4.3-27.1,10.5-54,21.6-79.3
		c6.4-14.5,14.1-28.3,27-38.5c9.4-7.4,20.5-11.9,31.7-11.5c11.2,0.5,22.4,4.3,31.8,11.7c14.1,11,23,25.7,29.9,41.8
		c11.3,26.5,18.2,54.3,22.2,82.8c6.9,48.8,12.6,97.8,19.5,146.6c3.8,26.7,8.8,53.2,13.6,79.7c1,5.7,2.7,11.4,5,16.7
		c1.1,2.6,4.1,5.5,6.8,6.1c1.9,0.4,5.8-2.1,6.9-4.3c4-8.2,8.1-16.5,10.5-25.3c7.9-29.1,14.9-58.4,22.8-87.5
		c4.8-17.9,11.1-35.1,20.9-51.1c22.5-36.5,70-35,94.3-1.8c11.7,16,18.8,34.4,27.2,52.1c6.5,13.8,13.6,27.4,21.8,40.3
		c6.9,10.9,17.7,15.9,31,15.8c39.8-0.3,79.7-0.1,119.5-0.1c2.3,0,4.6,0.6,6.9,0.9c0,18.7,0,37.3,0,56c-2.7,0.1-5.3,0.4-8,0.4
		c-40.2,0-80.3-0.3-120.5,0.1c-30.7,0.3-54.6-12.2-73.6-35.5c-12.5-15.4-21.2-33-29.2-51c-4.5-10.2-8.8-20.5-13.8-30.5
		c-1.4-2.7-4.6-5.8-7.4-6.3c-3.7-0.6-5.8,3.1-6.8,6.7c-5.3,19.6-10.8,39.1-15.8,58.8c-7.8,30.5-14.8,61.2-30.6,88.9
		c-8.2,14.4-18.6,27.1-34.2,34c-30.6,13.5-56.1,6.4-72.6-23.1c-9.2-16.4-14.8-34.2-19.1-52.4c-10.2-43.9-14.3-88.7-19.7-133.4
		c-4.1-33.6-8.6-67.1-14-100.4c-3.4-21.4-9-42.3-17.9-62.3c-1.4-3.2-3.2-6.2-7.1-5.9c-4,0.2-5.8,3.3-7.2,6.8
		c-8.8,23.3-14.2,47.6-17.5,72.2c-4,29.9-7.5,59.8-10.4,89.8c-4.2,44.2-6.8,88.6-11.4,132.8c-3.4,32.9-8,65.8-13.5,98.4
		c-4.2,25.1-10.9,49.8-24.1,72.1c-6.2,10.5-13.9,19.4-25.4,24.7c-16.2,7.4-31.3,4.2-45.5-4.8c-15.9-10.2-25.4-25.7-33-42.4
		c-12.1-26.3-19.6-54.2-25.2-82.4c-7.7-38.9-14.3-78-22.5-116.7c-5.1-24.2-12.1-48-18.6-72c-1.1-4-2.2-9.2-7.7-9.2
		c-5.2,0-6.3,4.9-7.7,8.7c-8.4,21.9-12.9,44.8-17.4,67.7c-6.5,33.2-12.3,66.5-19.8,99.4c-5.1,22.4-12.9,44-27,62.9
		c-22.1,29.4-62.8,27.7-84.9,5.8c-12.9-12.8-21-28.3-27.3-44.9c-7.8-20.7-14.4-41.9-22.2-62.6c-3.8-9.9-8.8-19.4-14.2-28.5
		c-7.3-12.3-18.8-18-33-18c-36.5,0-73,0-109.5,0c-0.7,0-1.3,0.2-2,0.2C-1954.8-1459.3-1954.8-1478.3-1954.8-1497.3z"/>
</g>
</svg>
